<?xml version="1.0" encoding="UTF-8" standalone="no"?>
<!DOCTYPE svg PUBLIC "-//W3C//DTD SVG 1.1//EN" "http://www.w3.org/Graphics/SVG/1.1/DTD/svg11.dtd">
<svg width="100%" height="100%" viewBox="0 0 969 707" version="1.1" xmlns="http://www.w3.org/2000/svg" xmlns:xlink="http://www.w3.org/1999/xlink" xml:space="preserve" xmlns:serif="http://www.serif.com/" style="fill-rule:evenodd;clip-rule:evenodd;stroke-linecap:round;stroke-linejoin:round;stroke-miterlimit:1.5;">
    <g id="Artboard1" transform="matrix(1.21125,0,0,0.88375,0,0)">
        <rect x="0" y="0" width="800" height="800" style="fill:none;"/>
        <g transform="matrix(4.14218,0,0,5.67718,-1149.05,-306.112)">
            <text x="286.22px" y="80.91px" style="font-family:'ArialMT', 'Arial', sans-serif;font-size:12px;">Empathy</text>
        </g>
        <g transform="matrix(4.14218,0,0,5.67718,-1168.58,261.922)">
            <text x="286.22px" y="80.91px" style="font-family:'ArialMT', 'Arial', sans-serif;font-size:12px;">Communication</text>
        </g>
        <g transform="matrix(4.14218,0,0,5.67718,-640.871,-54.8161)">
            <text x="286.22px" y="80.91px" style="font-family:'ArialMT', 'Arial', sans-serif;font-size:12px;">Mentorship</text>
        </g>
        <g transform="matrix(0.825593,0,0,1.13154,27.0084,-19.2362)">
            <path d="M277.753,86.984C315.286,70.904 356.611,62 400,62C547.38,62 670.953,164.738 702.947,302.442" style="fill:none;stroke:black;stroke-width:30.67px;"/>
        </g>
        <g transform="matrix(-0.377253,-1.60641,1.51379,-0.667806,-179.25,924.561)">
            <path d="M369.579,361L400,390L339.158,390L369.579,361Z"/>
        </g>
        <g transform="matrix(-0.896645,1.15657,-1.08989,-1.58722,914.015,813.815)">
            <path d="M369.579,361L400,390L339.158,390L369.579,361Z"/>
        </g>
        <g transform="matrix(0.825593,0,0,1.13154,27.0084,-19.2362)">
            <path d="M706.48,426.08C681.261,572.477 553.552,684 400,684C379.181,684 358.836,681.95 339.158,678.04" style="fill:none;stroke:black;stroke-width:30.67px;"/>
        </g>
        <g transform="matrix(0.825593,0,0,1.13154,27.0084,-19.2362)">
            <path d="M162.014,573.128C116.46,519.025 89,449.194 89,373C89,309.584 108.022,250.575 140.667,201.374" style="fill:none;stroke:black;stroke-width:30.67px;"/>
        </g>
        <g transform="matrix(1.22536,0.1654,-0.155863,2.1691,213.722,-415.32)">
            <path d="M369.579,361L400,390L339.158,390L369.579,361Z"/>
        </g>
        <g transform="matrix(6.58684,0,0,9.02779,-1994.1,-2856.88)">
            <text x="331.732px" y="363.085px" style="font-family:'Arial-BoldMT', 'Arial', sans-serif;font-weight:700;font-size:12px;fill:rgb(0,170,39);">Success</text>
        </g>
    </g>
</svg>
